<?xml version="1.0" encoding="UTF-8"?>
<svg id="Layer_1" data-name="Layer 1" xmlns="http://www.w3.org/2000/svg" viewBox="0 0 186.62 109.02">
  <defs>
    <style>
      .cls-1 {
        letter-spacing: 0em;
      }

      .cls-2 {
        letter-spacing: -.04em;
      }

      .cls-3 {
        font-family: MyriadPro-Regular, 'Myriad Pro';
        font-size: 12px;
      }

      .cls-3, .cls-4 {
        fill: #004d46;
      }

      .cls-5 {
        fill: #969;
      }

      .cls-5, .cls-6, .cls-4 {
        stroke-width: 0px;
      }

      .cls-7 {
        letter-spacing: .03em;
      }

      .cls-6 {
        fill: #a067ab;
      }

      .cls-8 {
        letter-spacing: 0em;
      }
    </style>
  </defs>
  <path class="cls-6" d="M177.61,75.51c-.9.67-1.87,1.32-2.91,1.95-1.66-1.11-3.66-1.76-5.79-1.76-5.25,0-9.63,3.92-10.35,8.98-.07.48-.11.98-.11,1.48v8.61h-7.44v-12.78c0-2.87-2.35-5.22-5.21-5.22h-2.05c-2.87,0-5.22,2.35-5.22,5.22v12.78h-8.25v-25.85c0-2.88-1.18-5.49-3.07-7.38-1.9-1.9-4.51-3.07-7.39-3.07-5.75,0-10.46,4.7-10.46,10.45v25.85h-28.2v-25.85c0-2.88-1.18-5.49-3.07-7.38-1.9-1.9-4.51-3.07-7.39-3.07-5.75,0-10.46,4.7-10.46,10.45v25.85h-8.94v-12.78c0-2.87-2.35-5.22-5.22-5.22h-2.05c-2.86,0-5.21,2.35-5.21,5.22v12.78h-7.14v-8.77c-.04-2.82-1.22-5.38-3.07-7.23-1.89-1.89-4.51-3.07-7.38-3.07s-5.59,1.22-7.49,3.18c-1.68-.91-3.22-1.86-4.61-2.83,20.17-15.07,50.58-24.66,84.61-24.66s63.7,9.36,83.87,24.12Z"/>
  <path class="cls-6" d="M152.03,49.67c0,3.36-2.72,6.08-6.09,6.08s-6.08-2.72-6.08-6.08,2.72-6.09,6.08-6.09,6.09,2.73,6.09,6.09Z"/>
  <g id="Graphic_Elements" data-name="Graphic Elements">
    <circle class="cls-5" cx="95.03" cy="29.41" r="14.84"/>
    <g>
      <path class="cls-4" d="M97.01,18.25s-.06-.53-.62-.87c-.57-.34-2-.62-2.13.12-.14.74-.71.27-.71.27,0,0,.35-.16.41-.57.06-.41-1.06-.6-1.09-.23-.03.36.24.53-.06.6s-.59.15-.96.18-.42-.43-.42-.43c0,0,.29.04.71-.06.42-.1.66-.48.2-.63s.03.35-.99.2c0,0-.13-.04-.24-.37-.11-.33-1.05-.49-1.39-.2-.34.29-.16.53.12.62.28.09-.12.27.32.36s.62.14.5.25c-.12.11-2.34-.51-2.29-1,0,0-4.44,1.97-6.22,6.03,0,0,.04.24.33.31.29.07.47.09.36.63-.11.54-.27,1.67.46,1.8.73.13.36-.47.19-.76s-.28-1.17.14-.95c.42.22-.2.26.43,1.43.63,1.16-.35,1.08.41,1.92.76.84,1.19-.04,1.44.25s.01.47.51.54c.5.07.29-.14.51.33s.38,1.42,1.85,1.07c0,0,.24.53,0,.89-.24.36-.96.34-1.04,1.09-.08.75.09,1.04.44,1.58s.09.88.48,1.14c.39.26,1.3.42,1.12,1.1s-.5,1.95-.33,2.26c.17.31-.05.31-.1.69-.06.39.5.78.46,1.27-.05.49-.54.97-.22,1.49.33.52.41.32.55.79.15.47.25.67.51.73.26.06.68.12.83.35.15.23.54-.19.28-.43-.26-.25-.59-.16-.49-.65.1-.48.39-.63,0-.87s-.33-.52-.16-.52c.16,0,.53-.16.22-.41-.31-.25-.41-.32-.17-.31.24,0,.98.24,1.64-.37.65-.62,1.24-1.35,1.24-1.35,0,0,.2-.42.12-.85-.07-.43.27-.54.85-.48.58.06.51-.22.51-.22,0,0,.51.52.69-1.58,0,0-.03-.35.63-.65.66-.3.1-1.06-.27-1.06,0,0-.15-.47-.46-.54-.31-.07-1.02.01-1.31-.21-.29-.22-.69-.41-.69-.41,0,0,.35-1.5-1.15-1.5,0,0-.22-1.08-.97-1.06-.75.03-.84.09-.95-.08-.11-.17-.25-.85-.78-.71-.53.14-.65.8-1.17.65-.51-.15-1.16-.11-1.01-.61.15-.5.24-1.09-.56-1.1,0,0-.2-.08.13-.35.33-.27.18-.68-.01-.66-.19.03-.76.42-1.03.43-.27.01-1.13-.13-.66-1.17.47-1.04,2.74-1.14,2.9-.61.16.52-.03.73.5.78.53.05.37-.87.37-.87l1.44-.87s.15-.11.26-.28c.11-.17,1.86-1,2.24-1.57.38-.58.51-.9,1.01-.65.5.25.7.31.83-.01.13-.32.78.5,1.05.15.27-.36.14-.79-.41-.87s.17-.61-.05-.74c-.22-.14-.64.33-.85.14-.21-.19.24-.89-.48-.91s-.81.04-1.03.83c-.22.78-.54,0-1.1.58-.57.58-.44.23-.49-.12-.06-.35-.45-.61-.84-.64-.4-.03-.24-.74.35-.9.59-.15,1.29-.42,1.29-.42,0,0,.06.48.48.36.42-.12.56-.55.56-.55l.42.06s.29-.3.37-.32c.08-.01.95.13.95.13,0,0,.49-.04.03.19-.46.22-.74-.05-.64.36.1.41.13.18.44.46.31.28.8.22.91-.16,0,0,.63.25.77-.15.14-.4-.19-.53-.19-.53Z"/>
      <path class="cls-4" d="M93.64,22.58c.18.21.68.1.21-.36,0,0-.4.15-.21.36Z"/>
      <path class="cls-4" d="M94.7,21.91c.14-.19-.26-.4-.26-.4,0,0-.23-.06-.27.2-.04.26.4.4.53.21Z"/>
      <path class="cls-4" d="M94.85,22.59s.78-.18.25-.59c0,0-.2.23-.41.26-.22.02-.5-.04-.35.35.16.39.51,0,.51,0Z"/>
      <path class="cls-4" d="M95.93,21.61s-.69-.07-.39.44c0,0,.2.11.39.29.19.18.66.25.7-.03.04-.28-.07-.61-.7-.7Z"/>
      <path class="cls-4" d="M109.46,27.43s-1.33.13-1.46-.26c-.13-.39-.57-.53-1.44-.39-.88.14-.53-.21-.84-.33-.3-.12-.63-.06-.63-.06,0,0,.9-1.55-2.2-.91,0,0-1.23-.38-1.64.37-.41.76-.23.86-1.38,1.17-1.14.31-.28.98-.28.98,0,0,.37.24-.07.49-.44.25-.63.99-.43,1.44.2.45.81,1.45,1.23,1.64.43.19,1.67.34,1.92.03.26-.3.48-.35.81-.04.33.31,1.43.12,1.3.42-.12.3-.7.95-.26,1.75.45.8.76,1.42.24,1.84-.52.43-.49.98-.03,1.47,0,0-.36,1.02-.03,1.47.34.44.28,1.04.15,1.33-.12.3,0,.13,0,.13,0,0-.09.46.16.21s5.77-5.01,4.85-12.75Z"/>
      <path class="cls-4" d="M103.2,25.16c.72-.16,1.08-1,1.08-1,0,0,.72.36,1.01-.09,0,0,.3.86.74.97,0,0-.41.07-.34.48.07.4,1.28.21,1.02-.56-.26-.77-1.48-.66-.75-1.08.73-.42,1.06.78,1.07,1.1,0,.32-.26,1.07.37.79.63-.28.5-1.19.69-.72.2.47-.17,1,.41,1.05.58.06.74.1.74.1,0,0-1-3.79-3.14-6.16,0,0-.02.29-.56.32-.54.03-.87.66-.5,1.06.37.39.94.18.92.47-.02.29-.12.43-.54.24-.43-.19-.7-.15-.81.23-.11.38-.29.67-.59.52-.3-.15-1.01.09-.67.72,0,0,.16.55-.22.41-.38-.13-1.38-.48-1.43.43-.05.91.78.9,1.5.74Z"/>
      <path class="cls-4" d="M103.17,21.71c.25.09.24.35.07.43-.17.08-.51.37-.18.47.33.1,1.14.27,1.13-.21-.01-.47-.38-.53-.38-.53,0,0-.37-.42-.1-.78,0,0,.02-.34-.38-.34-.4,0-.39.65-.47.67-.08.01-.45-.01-.45-.01,0,0-.61.31-.12.8.49.49.62-.59.88-.51Z"/>
    </g>
  </g>
  <path class="cls-6" d="M49.27,49.67c0,3.36-2.72,6.08-6.09,6.08s-6.08-2.72-6.08-6.08,2.72-6.09,6.08-6.09,6.09,2.73,6.09,6.09Z"/>
  <text class="cls-3" transform="translate(5.16 106.02)"><tspan x="0" y="0">BRIDGE OF HOPE G</tspan><tspan class="cls-2" x="95.35" y="0">L</tspan><tspan x="100.55" y="0">OBAL P</tspan><tspan class="cls-8" x="137.25" y="0">R</tspan><tspan x="143.75" y="0">OJE</tspan><tspan class="cls-7" x="162.36" y="0">C</tspan><tspan class="cls-1" x="169.65" y="0">T</tspan><tspan x="175.55" y="0">S</tspan></text>
</svg>